<svg width="24" height="24" viewBox="0 0 24 24" fill="none" xmlns="http://www.w3.org/2000/svg">
<path d="M12.042 23.296C4.229 23.296 0 18.42 0 12.125C0 5.398 4.762 0 13.276 0C19.49 0 24 4.038 24 9.601C24 18.313 13.67 20.613 14.188 15.643C13.478 16.751 12.334 17.997 10.135 17.997C7.619 17.997 6.055 16.155 6.055 13.19C6.055 8.746 8.976 4.991 12.434 4.991C14.093 4.991 15.234 5.867 15.711 7.212L16.175 5.58H18.513C18.269 6.412 16.192 14.107 16.192 14.107C15.544 16.773 17.542 16.82 19.314 15.404C22.643 12.824 22.815 6.077 18.316 3.263C13.495 0.372 2.521 2.161 2.521 11.956C2.521 17.567 6.471 21.337 12.35 21.337C15.786 21.337 17.892 20.407 19.645 19.389L20.822 21.087C19.111 22.053 16.361 23.296 12.042 23.296ZM9.698 8.991C8.983 10.331 8.521 12.067 8.521 13.415C8.521 17.025 12.043 17.048 13.773 13.654C14.485 12.26 14.944 10.483 14.944 9.125C14.944 6.208 11.449 5.691 9.698 8.991Z" fill="#ECECEC"/>
</svg>
