<svg width="29" height="26" viewBox="0 0 29 26" fill="none" xmlns="http://www.w3.org/2000/svg">
<path fill-rule="evenodd" clip-rule="evenodd" d="M24.9072 18.1335C29.1408 14.929 29.975 8.89914 26.7704 4.66555C23.5659 0.431968 17.536 -0.402208 13.3024 2.80237C9.43451 5.73017 8.40413 11.0163 10.6989 15.1362L1.53799 22.0705C0.681364 22.7189 0.512577 23.9389 1.16099 24.7956C1.8094 25.6522 3.02947 25.821 3.8861 25.1726L13.2422 18.0906C16.5911 20.6694 21.3745 20.8076 24.9072 18.1335ZM24.3784 6.47616C26.583 9.38868 26.0091 13.5369 23.0966 15.7415C20.1841 17.9461 16.0359 17.3723 13.8313 14.4597C11.6267 11.5472 12.2005 7.39898 15.1131 5.19438C18.0256 2.98977 22.1738 3.56365 24.3784 6.47616Z" fill="black" fill-opacity="0.5"/>
</svg>
